<?xml version="1.0" encoding="utf-8"?>
<!-- Generator: Adobe Illustrator 23.0.6, SVG Export Plug-In . SVG Version: 6.00 Build 0)  -->
<svg version="1.1" id="Calque_1" xmlns="http://www.w3.org/2000/svg" xmlns:xlink="http://www.w3.org/1999/xlink" x="0px" y="0px"
	 viewBox="0 0 453.5 253.1" style="enable-background:new 0 0 453.5 253.1;" xml:space="preserve">
<style type="text/css">
	.st0{fill:#00BBD6;}
</style>
<g>
	<path d="M417.2,226.2h4.3v3.7c1-1.3,2-2.2,2.8-2.8c1.4-1,3.1-1.5,4.9-1.5c2.1,0,3.7,0.5,5,1.5c0.7,0.6,1.4,1.4,1.9,2.6
		c1-1.4,2.1-2.4,3.4-3.1c1.3-0.7,2.8-1,4.4-1c3.5,0,5.9,1.3,7.1,3.8c0.7,1.3,1,3.2,1,5.5v17.3h-4.5v-18c0-1.7-0.4-2.9-1.3-3.6
		c-0.9-0.6-1.9-1-3.2-1c-1.7,0-3.2,0.6-4.4,1.7c-1.2,1.1-1.9,3.1-1.9,5.7v15.1h-4.4v-16.9c0-1.8-0.2-3.1-0.6-3.9
		c-0.7-1.2-1.9-1.8-3.7-1.8c-1.7,0-3.2,0.6-4.5,1.9c-1.4,1.3-2,3.6-2,6.9v13.8h-4.4V226.2z"/>
	<path d="M409,228.8c2.3,2.2,3.4,5.5,3.4,9.8c0,4.2-1,7.6-3,10.4c-2,2.7-5.2,4.1-9.4,4.1c-3.6,0-6.4-1.2-8.5-3.6
		c-2.1-2.4-3.1-5.6-3.1-9.7c0-4.3,1.1-7.8,3.3-10.4c2.2-2.6,5.2-3.9,8.9-3.9C403.9,225.4,406.7,226.5,409,228.8 M406.3,246
		c1.1-2.2,1.6-4.6,1.6-7.3c0-2.4-0.4-4.4-1.2-5.9c-1.2-2.4-3.3-3.6-6.3-3.6c-2.6,0-4.6,1-5.8,3c-1.2,2-1.8,4.5-1.8,7.4
		c0,2.8,0.6,5.1,1.8,6.9c1.2,1.8,3.1,2.7,5.7,2.7C403.3,249.3,405.2,248.2,406.3,246"/>
	<path d="M382.4,227.6c1.8,1.4,2.9,3.9,3.3,7.3h-4.2c-0.3-1.6-0.8-3-1.8-4c-0.9-1.1-2.4-1.6-4.4-1.6c-2.8,0-4.8,1.3-6,4
		c-0.8,1.8-1.2,3.9-1.2,6.5c0,2.6,0.6,4.8,1.7,6.6c1.1,1.8,2.8,2.7,5.2,2.7c1.8,0,3.2-0.5,4.3-1.6c1.1-1.1,1.8-2.6,2.2-4.6h4.2
		c-0.5,3.5-1.7,6-3.6,7.6c-1.9,1.6-4.4,2.4-7.5,2.4c-3.4,0-6.1-1.2-8.1-3.8c-2-2.5-3-5.6-3-9.3c0-4.6,1.1-8.1,3.3-10.6
		c2.2-2.5,5-3.8,8.5-3.8C378.2,225.4,380.6,226.2,382.4,227.6"/>
	<path d="M354.1,226.9c1.7,0.9,3,2,3.9,3.4c0.9,1.3,1.4,2.8,1.7,4.6c0.2,1.2,0.4,3.1,0.4,5.7h-18.9c0.1,2.7,0.7,4.8,1.9,6.4
		c1.1,1.6,2.9,2.4,5.4,2.4c2.3,0,4.1-0.7,5.4-2.3c0.8-0.9,1.3-1.9,1.6-3h4.3c-0.1,1-0.5,2-1.1,3.2c-0.6,1.2-1.4,2.1-2.1,2.9
		c-1.3,1.3-2.9,2.2-4.9,2.6c-1,0.3-2.2,0.4-3.5,0.4c-3.2,0-5.9-1.2-8.2-3.5c-2.2-2.4-3.3-5.7-3.3-9.9c0-4.2,1.1-7.6,3.4-10.2
		c2.2-2.6,5.2-3.9,8.8-3.9C350.6,225.6,352.4,226,354.1,226.9 M355.7,237.1c-0.2-1.9-0.6-3.4-1.2-4.5c-1.2-2.1-3.2-3.2-5.9-3.2
		c-2,0-3.6,0.7-5,2.2c-1.3,1.4-2.1,3.3-2.1,5.5H355.7z M353.9,215.7l-6.5,7h-3.3l4.4-7H353.9z"/>
	<rect x="327.7" y="216.5" width="4.4" height="35.6"/>
	<path d="M316.7,226.9c1.7,0.9,3,2,3.9,3.4c0.9,1.3,1.4,2.8,1.7,4.6c0.3,1.2,0.4,3.1,0.4,5.7h-18.9c0.1,2.7,0.7,4.8,1.9,6.4
		c1.1,1.6,2.9,2.4,5.4,2.4c2.3,0,4.1-0.7,5.4-2.3c0.7-0.9,1.3-1.9,1.6-3h4.3c-0.1,1-0.5,2-1.1,3.2c-0.6,1.2-1.4,2.1-2.1,2.9
		c-1.3,1.3-2.9,2.2-4.9,2.6c-1,0.3-2.2,0.4-3.5,0.4c-3.2,0-5.9-1.2-8.2-3.5c-2.2-2.4-3.3-5.7-3.3-9.9c0-4.2,1.1-7.6,3.4-10.2
		c2.2-2.6,5.2-3.9,8.8-3.9C313.2,225.6,315,226,316.7,226.9 M318.3,237.1c-0.2-1.9-0.6-3.4-1.2-4.5c-1.2-2.1-3.2-3.2-5.9-3.2
		c-2,0-3.7,0.7-5,2.2c-1.3,1.4-2.1,3.3-2.1,5.5H318.3z M316.5,215.7l-6.5,7h-3.3l4.4-7H316.5z"/>
	<polygon points="303.7,216.5 303.7,220.8 291.7,220.8 291.7,252.1 286.8,252.1 286.8,220.8 274.8,220.8 274.8,216.5 	"/>
	<rect x="265.4" y="236.1" width="12.2" height="4.5"/>
	<path d="M242.4,244c0.1,1.5,0.5,2.6,1.1,3.3c1.1,1.4,3.1,2.1,5.8,2.1c1.7,0,3.1-0.3,4.4-1c1.3-0.7,1.9-1.8,1.9-3.3
		c0-1.1-0.5-1.9-1.5-2.5c-0.6-0.3-1.9-0.8-3.8-1.2l-3.5-0.8c-2.2-0.6-3.9-1.2-5-1.9c-1.9-1.2-2.9-2.8-2.9-4.9c0-2.4,0.9-4.4,2.7-5.9
		c1.8-1.5,4.2-2.3,7.2-2.3c4,0,6.8,1.1,8.6,3.4c1.1,1.5,1.6,3,1.6,4.7h-4.1c-0.1-1-0.4-1.9-1.1-2.7c-1-1.1-2.8-1.7-5.3-1.7
		c-1.7,0-3,0.3-3.8,0.9c-0.9,0.6-1.3,1.5-1.3,2.5c0,1.1,0.6,2,1.7,2.7c0.7,0.4,1.6,0.8,2.9,1l2.9,0.7c3.2,0.8,5.3,1.5,6.4,2.2
		c1.7,1.1,2.5,2.9,2.5,5.3c0,2.3-0.9,4.3-2.7,6c-1.8,1.7-4.5,2.5-8.1,2.5c-3.9,0-6.7-0.9-8.3-2.6c-1.6-1.8-2.5-3.9-2.6-6.5H242.4z"
		/>
	<path d="M229,226.9c1.7,0.9,3,2,3.9,3.4c0.9,1.3,1.4,2.8,1.7,4.6c0.3,1.2,0.4,3.1,0.4,5.7h-18.9c0.1,2.7,0.7,4.8,1.9,6.4
		c1.2,1.6,2.9,2.4,5.4,2.4c2.3,0,4.1-0.7,5.4-2.3c0.8-0.9,1.3-1.9,1.6-3h4.3c-0.1,1-0.5,2-1.1,3.2c-0.6,1.2-1.4,2.1-2.1,2.9
		c-1.3,1.3-2.9,2.2-4.9,2.6c-1,0.3-2.2,0.4-3.5,0.4c-3.2,0-5.9-1.2-8.2-3.5c-2.2-2.4-3.4-5.7-3.4-9.9c0-4.2,1.1-7.6,3.4-10.2
		c2.3-2.6,5.2-3.9,8.8-3.9C225.5,225.6,227.2,226,229,226.9 M230.5,237.1c-0.2-1.9-0.6-3.4-1.2-4.5c-1.2-2.1-3.2-3.2-5.9-3.2
		c-2,0-3.7,0.7-5,2.2c-1.3,1.4-2.1,3.3-2.1,5.5H230.5z"/>
	<path d="M185.9,226.2h4.1v3.7c1.2-1.5,2.5-2.6,3.9-3.3c1.4-0.7,2.9-1,4.6-1c3.7,0,6.2,1.3,7.5,3.9c0.7,1.4,1.1,3.4,1.1,6v16.7h-4.4
		v-16.4c0-1.6-0.2-2.9-0.7-3.8c-0.8-1.6-2.2-2.4-4.2-2.4c-1,0-1.9,0.1-2.5,0.3c-1.2,0.3-2.2,1.1-3.1,2.1c-0.7,0.9-1.2,1.7-1.4,2.7
		c-0.2,0.9-0.3,2.2-0.3,3.9v13.6h-4.4V226.2z"/>
	<path d="M175.5,216.5h4.4v5h-4.4V216.5z M175.5,226.3h4.4v25.8h-4.4V226.3z"/>
	<path d="M135,216.5h6.9l10.2,30.1l10.2-30.1h6.9v35.6h-4.6v-21c0-0.7,0-1.9,0.1-3.6c0-1.7,0-3.5,0-5.4l-10.2,30h-4.8l-10.3-30v1.1
		c0,0.9,0,2.2,0.1,4c0.1,1.8,0.1,3.1,0.1,4v21H135V216.5z"/>
	<path d="M109.2,226.9c1.7,0.9,3,2,3.9,3.4c0.9,1.3,1.4,2.8,1.7,4.6c0.3,1.2,0.4,3.1,0.4,5.7H96.3c0.1,2.7,0.7,4.8,1.8,6.4
		c1.2,1.6,2.9,2.4,5.4,2.4c2.3,0,4.1-0.7,5.4-2.3c0.7-0.9,1.3-1.9,1.6-3h4.3c-0.1,1-0.5,2-1.1,3.2c-0.6,1.2-1.4,2.1-2.1,2.9
		c-1.3,1.3-2.9,2.2-4.9,2.6c-1,0.3-2.2,0.4-3.5,0.4c-3.2,0-5.9-1.2-8.2-3.5c-2.2-2.4-3.3-5.7-3.3-9.9c0-4.2,1.1-7.6,3.4-10.2
		c2.2-2.6,5.2-3.9,8.8-3.9C105.7,225.6,107.5,226,109.2,226.9 M110.7,237.1c-0.2-1.9-0.6-3.4-1.2-4.5c-1.2-2.1-3.2-3.2-5.9-3.2
		c-2,0-3.7,0.7-5,2.2c-1.3,1.4-2.1,3.3-2.1,5.5H110.7z"/>
	<rect x="82.7" y="216.5" width="4.4" height="35.6"/>
	<path d="M74.4,228.8c2.3,2.2,3.4,5.5,3.4,9.8c0,4.2-1,7.6-3,10.4c-2,2.7-5.2,4.1-9.4,4.1c-3.6,0-6.4-1.2-8.4-3.6
		c-2.1-2.4-3.1-5.6-3.1-9.7c0-4.3,1.1-7.8,3.3-10.4c2.2-2.6,5.2-3.9,8.9-3.9C69.3,225.4,72.1,226.5,74.4,228.8 M71.7,246
		c1.1-2.2,1.6-4.6,1.6-7.3c0-2.4-0.4-4.4-1.1-5.9c-1.2-2.4-3.3-3.6-6.3-3.6c-2.6,0-4.6,1-5.8,3c-1.2,2-1.8,4.5-1.8,7.4
		c0,2.8,0.6,5.1,1.8,6.9c1.2,1.8,3.1,2.7,5.7,2.7C68.6,249.3,70.6,248.2,71.7,246"/>
	<path d="M47.8,227.6c1.8,1.4,2.9,3.9,3.3,7.3h-4.3c-0.3-1.6-0.8-3-1.8-4c-0.9-1.1-2.4-1.6-4.4-1.6c-2.8,0-4.8,1.3-6,4
		c-0.8,1.8-1.2,3.9-1.2,6.5c0,2.6,0.6,4.8,1.6,6.6c1.1,1.8,2.8,2.7,5.2,2.7c1.8,0,3.2-0.5,4.3-1.6c1.1-1.1,1.8-2.6,2.2-4.6h4.3
		c-0.5,3.5-1.7,6-3.6,7.6c-1.9,1.6-4.4,2.4-7.5,2.4c-3.4,0-6.1-1.2-8.1-3.8c-2-2.5-3-5.6-3-9.3c0-4.6,1.1-8.1,3.3-10.6
		c2.2-2.5,5-3.8,8.5-3.8C43.6,225.4,46,226.2,47.8,227.6"/>
	<path d="M0,216.5h25.8v4.4H4.7v10.8h19.6v4.1H4.7v12.1h21.5v4.3H0V216.5z M18.6,206.7l-6.5,7H8.8l4.4-7H18.6z"/>
	<path d="M430.9,189.1c0.4,0.7,0.9,1.3,1.6,1.7c0.6,0.5,1.4,0.8,2.2,1c0.8,0.2,1.7,0.3,2.6,0.3c0.6,0,1.3-0.1,2-0.2
		c0.7-0.2,1.3-0.4,1.9-0.7c0.6-0.3,1.1-0.8,1.4-1.3c0.4-0.5,0.6-1.2,0.6-2c0-1.4-0.9-2.4-2.7-3c-1.8-0.7-4.3-1.4-7.5-2
		c-1.3-0.3-2.6-0.7-3.8-1.1c-1.3-0.4-2.4-0.9-3.3-1.6c-1-0.7-1.8-1.5-2.3-2.5c-0.6-1-0.9-2.2-0.9-3.7c0-2.1,0.4-3.9,1.2-5.2
		c0.8-1.4,1.9-2.4,3.3-3.2c1.4-0.8,2.9-1.3,4.6-1.7c1.7-0.3,3.4-0.5,5.2-0.5c1.8,0,3.5,0.2,5.2,0.5c1.7,0.3,3.2,0.9,4.5,1.7
		c1.3,0.8,2.4,1.9,3.3,3.2c0.9,1.3,1.4,3,1.6,5.1h-8.6c-0.1-1.7-0.8-2.9-2-3.5c-1.2-0.6-2.6-0.9-4.2-0.9c-0.5,0-1.1,0-1.7,0.1
		c-0.6,0.1-1.1,0.2-1.6,0.4c-0.5,0.2-0.9,0.5-1.2,0.9c-0.3,0.4-0.5,0.9-0.5,1.6c0,0.8,0.3,1.5,0.9,2c0.6,0.5,1.4,0.9,2.3,1.2
		c1,0.3,2,0.6,3.3,0.9c1.2,0.3,2.5,0.5,3.8,0.8c1.3,0.3,2.6,0.6,3.8,1.1c1.2,0.4,2.4,1,3.3,1.7c1,0.7,1.8,1.6,2.4,2.6
		c0.6,1,0.9,2.3,0.9,3.8c0,2.2-0.4,4-1.3,5.4c-0.9,1.5-2,2.6-3.4,3.5c-1.4,0.9-3,1.5-4.8,1.9c-1.8,0.4-3.6,0.5-5.5,0.5
		c-1.9,0-3.8-0.2-5.6-0.6c-1.8-0.4-3.4-1-4.9-1.9c-1.4-0.9-2.6-2.1-3.5-3.5c-0.9-1.4-1.4-3.3-1.5-5.5h8.6
		C430.3,187.5,430.5,188.4,430.9,189.1"/>
	<path d="M396.8,189.4c1.4,1.3,3.3,2,5.8,2c1.8,0,3.4-0.5,4.7-1.4c1.3-0.9,2.1-1.9,2.4-2.9h7.9c-1.3,4-3.2,6.8-5.9,8.5
		c-2.6,1.7-5.8,2.5-9.5,2.5c-2.6,0-4.9-0.4-7-1.2c-2.1-0.8-3.8-2-5.3-3.5c-1.4-1.5-2.5-3.3-3.3-5.5c-0.8-2.1-1.2-4.4-1.2-7
		c0-2.4,0.4-4.7,1.2-6.9c0.8-2.1,1.9-4,3.4-5.5c1.5-1.5,3.3-2.8,5.3-3.7c2.1-0.9,4.3-1.3,6.8-1.3c2.8,0,5.2,0.5,7.3,1.6
		c2.1,1.1,3.8,2.5,5.1,4.4c1.3,1.8,2.3,3.9,2.9,6.2c0.6,2.3,0.8,4.8,0.6,7.3h-23.7C394.7,185.9,395.4,188,396.8,189.4 M390.1,147.3
		l10.4,11.2h6.3l-6.7-11.2H390.1z M407,172.1c-1.1-1.2-2.7-1.8-4.9-1.8c-1.4,0-2.6,0.2-3.6,0.7c-1,0.5-1.7,1.1-2.3,1.8
		c-0.6,0.7-1,1.5-1.2,2.3c-0.2,0.8-0.4,1.5-0.4,2.2h14.7C408.8,175,408.1,173.3,407,172.1"/>
	<rect x="371.2" y="151.8" width="9" height="45.4"/>
	<path d="M351.3,151.8l17,45.4h-10.4l-3.4-10.1h-17l-3.6,10.1h-10l17.2-45.4H351.3z M351.9,179.7l-5.7-16.7h-0.1l-5.9,16.7H351.9z"
		/>
	<path d="M283.5,189.1c0.4,0.7,0.9,1.3,1.6,1.7c0.6,0.5,1.4,0.8,2.2,1c0.8,0.2,1.7,0.3,2.6,0.3c0.6,0,1.3-0.1,2-0.2
		c0.7-0.2,1.3-0.4,1.9-0.7c0.6-0.3,1.1-0.8,1.4-1.3c0.4-0.5,0.6-1.2,0.6-2c0-1.4-0.9-2.4-2.7-3c-1.8-0.7-4.3-1.4-7.5-2
		c-1.3-0.3-2.6-0.7-3.8-1.1c-1.3-0.4-2.4-0.9-3.3-1.6c-1-0.7-1.8-1.5-2.3-2.5c-0.6-1-0.9-2.2-0.9-3.7c0-2.1,0.4-3.9,1.2-5.2
		c0.8-1.4,1.9-2.4,3.3-3.2c1.4-0.8,2.9-1.3,4.6-1.7c1.7-0.3,3.4-0.5,5.2-0.5c1.8,0,3.5,0.2,5.2,0.5c1.7,0.3,3.2,0.9,4.5,1.7
		c1.3,0.8,2.4,1.9,3.3,3.2c0.9,1.3,1.4,3,1.6,5.1h-8.6c-0.1-1.7-0.8-2.9-2-3.5c-1.2-0.6-2.6-0.9-4.2-0.9c-0.5,0-1.1,0-1.6,0.1
		c-0.6,0.1-1.1,0.2-1.6,0.4c-0.5,0.2-0.9,0.5-1.2,0.9c-0.3,0.4-0.5,0.9-0.5,1.6c0,0.8,0.3,1.5,0.9,2c0.6,0.5,1.4,0.9,2.3,1.2
		c1,0.3,2,0.6,3.3,0.9c1.2,0.3,2.5,0.5,3.8,0.8c1.3,0.3,2.6,0.6,3.8,1.1c1.2,0.4,2.4,1,3.3,1.7c1,0.7,1.8,1.6,2.3,2.6
		c0.6,1,0.9,2.3,0.9,3.8c0,2.2-0.4,4-1.3,5.4c-0.9,1.5-2,2.6-3.4,3.5c-1.4,0.9-3,1.5-4.8,1.9c-1.8,0.4-3.6,0.5-5.5,0.5
		c-1.9,0-3.8-0.2-5.6-0.6c-1.8-0.4-3.4-1-4.9-1.9c-1.4-0.9-2.6-2.1-3.5-3.5c-0.9-1.4-1.4-3.3-1.5-5.5h8.6
		C282.9,187.5,283.1,188.4,283.5,189.1"/>
	<path d="M249.5,189.4c1.4,1.3,3.3,2,5.8,2c1.8,0,3.4-0.5,4.7-1.4c1.3-0.9,2.1-1.9,2.4-2.9h7.9c-1.3,4-3.2,6.8-5.9,8.5
		c-2.6,1.7-5.8,2.5-9.5,2.5c-2.6,0-4.9-0.4-7-1.2c-2.1-0.8-3.8-2-5.3-3.5c-1.4-1.5-2.5-3.3-3.3-5.5c-0.8-2.1-1.2-4.4-1.2-7
		c0-2.4,0.4-4.7,1.2-6.9c0.8-2.1,2-4,3.4-5.5c1.5-1.5,3.3-2.8,5.3-3.7c2.1-0.9,4.3-1.3,6.8-1.3c2.8,0,5.2,0.5,7.3,1.6
		c2.1,1.1,3.8,2.5,5.1,4.4c1.3,1.8,2.3,3.9,2.9,6.2c0.6,2.3,0.8,4.8,0.6,7.3h-23.7C247.4,185.9,248.1,188,249.5,189.4 M259.7,172.1
		c-1.1-1.2-2.7-1.8-4.9-1.8c-1.4,0-2.6,0.2-3.6,0.7c-1,0.5-1.7,1.1-2.3,1.8c-0.6,0.7-1,1.5-1.2,2.3c-0.2,0.8-0.4,1.5-0.4,2.2h14.7
		C261.5,175,260.8,173.3,259.7,172.1"/>
	<path d="M210.9,164.4v4.6h0.2c1.1-1.9,2.6-3.3,4.5-4.2c1.8-0.9,3.7-1.3,5.6-1.3c2.4,0,4.4,0.3,5.9,1c1.5,0.6,2.8,1.6,3.7,2.7
		c0.9,1.2,1.5,2.6,1.9,4.3c0.4,1.7,0.5,3.5,0.5,5.6v20.2h-9v-18.6c0-2.7-0.4-4.7-1.3-6.1c-0.8-1.3-2.4-2-4.5-2
		c-2.5,0-4.2,0.7-5.3,2.2c-1.1,1.5-1.7,3.9-1.7,7.2v17.2h-9v-32.9H210.9z"/>
	<path d="M186.4,151.8h9v7.4h-9V151.8z M195.4,197.2h-9v-32.9h9V197.2z"/>
	<polygon points="143.8,151.8 154.5,183.1 154.6,183.1 164.6,151.8 178.7,151.8 178.7,197.2 169.3,197.2 169.3,165.1 169.2,165.1 
		158.1,197.2 150.4,197.2 139.3,165.4 139.1,165.4 139.1,197.2 129.8,197.2 129.8,151.8 	"/>
	<polygon points="71.6,160.2 71.6,151.8 108.8,151.8 108.8,160.2 95.2,160.2 95.2,197.2 85.2,197.2 85.2,160.2 	"/>
	<polygon points="32.4,151.8 43,183.1 43.1,183.1 53.2,151.8 67.2,151.8 67.2,197.2 57.9,197.2 57.9,165.1 57.8,165.1 46.6,197.2 
		38.9,197.2 27.8,165.4 27.7,165.4 27.7,197.2 18.3,197.2 18.3,151.8 	"/>
	<rect y="151.8" width="10" height="45.4"/>
	<polygon class="st0" points="324,129.6 324,64.8 259.2,64.8 324,0 453.5,0 	"/>
	<polygon class="st0" points="259.2,0 259.2,129.6 129.6,129.6 129.6,0 194.4,64.8 	"/>
	<polygon class="st0" points="129.6,0 0,129.6 0,0 	"/>
</g>
</svg>
